<?xml version="1.0" encoding="UTF-8" standalone="no"?>
<!-- Created with Inkscape (http://www.inkscape.org/) -->

<svg
   xmlns:dc="http://purl.org/dc/elements/1.1/"
   xmlns:cc="http://creativecommons.org/ns#"
   xmlns:rdf="http://www.w3.org/1999/02/22-rdf-syntax-ns#"
   xmlns:svg="http://www.w3.org/2000/svg"
   xmlns="http://www.w3.org/2000/svg"
   xmlns:sodipodi="http://sodipodi.sourceforge.net/DTD/sodipodi-0.dtd"
   xmlns:inkscape="http://www.inkscape.org/namespaces/inkscape"
   width="230"
   height="45"
   id="svg6688"
   version="1.1"
   inkscape:version="0.48.0 r9654"
   sodipodi:docname="Master System Logo.svg">
  <defs
     id="defs6690" />
  <sodipodi:namedview
     id="base"
     pagecolor="#ffffff"
     bordercolor="#666666"
     borderopacity="1.0"
     inkscape:pageopacity="0.0"
     inkscape:pageshadow="2"
     inkscape:zoom="1.0884182"
     inkscape:cx="188.07154"
     inkscape:cy="85.089493"
     inkscape:document-units="px"
     inkscape:current-layer="layer1"
     showgrid="false"
     inkscape:window-width="1680"
     inkscape:window-height="988"
     inkscape:window-x="-8"
     inkscape:window-y="-8"
     inkscape:window-maximized="1" />
  <metadata
     id="metadata6693">
    <rdf:RDF>
      <cc:Work
         rdf:about="">
        <dc:format>image/svg+xml</dc:format>
        <dc:type
           rdf:resource="http://purl.org/dc/dcmitype/StillImage" />
        <dc:title></dc:title>
      </cc:Work>
    </rdf:RDF>
  </metadata>
  <g
     inkscape:label="Ebene 1"
     inkscape:groupmode="layer"
     id="layer1"
     transform="translate(0,-1007.3622)">
    <g
       id="g6708"
       transform="translate(-67.069808,39.506873)">
      <g
         transform="translate(0,952.36218)"
         style="font-size:40px;font-style:normal;font-variant:normal;font-weight:normal;font-stretch:normal;text-align:center;line-height:125%;letter-spacing:0px;word-spacing:0px;writing-mode:lr-tb;text-anchor:middle;fill:black;fill-opacity:1;stroke:none;font-family:Times New Roman;-inkscape-font-specification:Times New Roman"
         id="flowRoot6696">
        <path
           d="m 104.99375,49.935219 -12.246093,0 0,-1.386719 c 0.442685,-0.01302 1.012346,-0.05859 1.708984,-0.136719 0.696589,-0.07812 1.175104,-0.1888 1.435547,-0.332031 0.403619,-0.247394 0.699843,-0.530596 0.888672,-0.849609 0.188775,-0.319008 0.283176,-0.719398 0.283203,-1.201172 l 0,-20.15625 -0.292969,0 -9.453125,23.613281 -0.976562,0 -9.003906,-24.101562 -0.253907,0 0,16.542968 c -7e-6,1.601569 0.100904,2.819016 0.302735,3.652344 0.201815,0.833337 0.511059,1.432295 0.927734,1.796875 0.28645,0.27344 0.878897,0.533856 1.777344,0.78125 0.898426,0.247398 1.484363,0.377606 1.757812,0.390625 l 0,1.386719 -11.191406,0 0,-1.386719 c 0.585936,-0.05208 1.20117,-0.149738 1.845703,-0.292969 0.644528,-0.143227 1.142574,-0.35807 1.494141,-0.644531 0.455724,-0.36458 0.768224,-0.924476 0.9375,-1.679687 0.169265,-0.755204 0.253901,-2.018223 0.253906,-3.789063 l 0,-14.179687 c -5e-6,-0.82029 -0.09766,-1.490862 -0.292969,-2.011719 -0.195317,-0.520809 -0.475265,-0.943986 -0.839843,-1.269531 -0.40365,-0.351537 -0.898441,-0.611954 -1.484375,-0.78125 -0.58594,-0.169245 -1.165367,-0.266901 -1.738282,-0.292969 l 0,-1.386719 9.453125,0 7.929688,20.78125 6.777344,-17.382812 c 0.24737,-0.637996 0.458958,-1.305313 0.634765,-2.001953 0.175755,-0.696588 0.270156,-1.162082 0.283203,-1.396485 l 9.042971,0 0,1.386719 c -0.36462,0.01305 -0.83011,0.07164 -1.39649,0.175781 -0.56644,0.104193 -0.97985,0.201849 -1.24023,0.292969 -0.44274,0.156276 -0.74222,0.416692 -0.89844,0.78125 -0.15628,0.364608 -0.2344,0.761743 -0.23437,1.191406 l 0,19.980469 c -3e-5,0.455733 0.0781,0.839847 0.23437,1.152344 0.15622,0.312502 0.4557,0.585939 0.89844,0.820312 0.23434,0.13021 0.65101,0.250653 1.25,0.361328 0.59892,0.110679 1.07418,0.172528 1.42578,0.185547 z"
           style="letter-spacing:-4.1500001px;fill:red;font-family:Georgia;-inkscape-font-specification:Georgia"
           id="path6717" />
        <path
           d="m 122.32812,49.583656 c -0.61199,0.221355 -1.1491,0.400391 -1.61132,0.53711 -0.46226,0.136718 -0.98635,0.205078 -1.57227,0.205078 -1.01564,0 -1.82619,-0.23763 -2.43164,-0.712891 -0.60548,-0.475259 -0.99285,-1.168618 -1.16211,-2.080078 l -0.11719,0 c -0.84636,0.937502 -1.75457,1.653647 -2.72461,2.148438 -0.97006,0.494791 -2.13868,0.742187 -3.50586,0.742187 -1.44531,0 -2.63346,-0.442708 -3.56445,-1.328125 -0.93099,-0.885415 -1.39649,-2.044268 -1.39648,-3.476562 -10e-6,-0.742183 0.10416,-1.406245 0.3125,-1.992188 0.20833,-0.58593 0.52083,-1.113274 0.9375,-1.582031 0.32551,-0.390617 0.7552,-0.738924 1.28906,-1.044922 0.53385,-0.30598 1.03515,-0.550121 1.50391,-0.732422 0.58593,-0.221344 1.77408,-0.6315 3.56445,-1.230469 1.79035,-0.598946 2.99803,-1.067696 3.62305,-1.40625 l 0,-1.933593 c -2e-5,-0.169257 -0.0358,-0.494777 -0.10743,-0.976563 -0.0716,-0.481755 -0.22462,-0.937484 -0.45898,-1.367187 -0.26043,-0.481754 -0.62827,-0.901675 -1.10352,-1.259766 -0.47527,-0.358055 -1.1491,-0.537091 -2.02148,-0.537109 -0.59897,1.8e-5 -1.15561,0.100929 -1.66992,0.302734 -0.51433,0.201841 -0.87566,0.413429 -1.08399,0.634766 0,0.260434 0.0619,0.644548 0.18555,1.152343 0.12369,0.507829 0.18554,0.976578 0.18555,1.40625 -10e-6,0.455744 -0.20509,0.87241 -0.61524,1.25 -0.41016,0.377618 -0.97982,0.56642 -1.70898,0.566407 -0.65105,1.3e-5 -1.12956,-0.231107 -1.43555,-0.69336 -0.30599,-0.462225 -0.45899,-0.979803 -0.45898,-1.552734 -10e-6,-0.598942 0.21158,-1.171859 0.63476,-1.71875 0.42318,-0.546857 0.97331,-1.035138 1.65039,-1.464844 0.58593,-0.364564 1.29557,-0.673809 2.12891,-0.927734 0.83332,-0.253887 1.64713,-0.38084 2.44141,-0.38086 1.09373,2e-5 2.04751,0.07489 2.86132,0.22461 0.81379,0.149759 1.55272,0.472024 2.2168,0.966797 0.66405,0.481789 1.1686,1.136085 1.51367,1.96289 0.34504,0.826839 0.51756,1.891291 0.51758,3.19336 -2e-5,1.86199 -0.0196,3.512379 -0.0586,4.951172 -0.0391,1.438809 -0.0586,3.011073 -0.0586,4.716796 -10e-6,0.507816 0.0879,0.911462 0.26367,1.210938 0.17577,0.299481 0.44595,0.553387 0.81055,0.761719 0.1953,0.117189 0.50454,0.182293 0.92774,0.195312 0.42315,0.01302 0.8561,0.01953 1.29882,0.01953 z m -6.8164,-10.3125 c -1.10678,0.325532 -2.07684,0.644542 -2.91016,0.957032 -0.83334,0.312509 -1.60808,0.703134 -2.32422,1.171875 -0.65105,0.442716 -1.16537,0.966804 -1.54297,1.572265 -0.37761,0.605475 -0.56641,1.324876 -0.5664,2.158203 -1e-5,1.080733 0.2832,1.875003 0.84961,2.382813 0.5664,0.507814 1.2858,0.76172 2.1582,0.761719 0.92447,10e-7 1.73827,-0.224608 2.44141,-0.673828 0.70311,-0.449216 1.29556,-0.979815 1.77734,-1.591797 z"
           style="letter-spacing:-4.1500001px;fill:red;font-family:Georgia;-inkscape-font-specification:Georgia"
           id="path6719" />
        <path
           d="m 132.80703,40.501625 c 0.53384,0.468759 0.944,1.009123 1.23047,1.621094 0.28644,0.611986 0.42967,1.360684 0.42969,2.246094 -2e-5,1.783858 -0.66733,3.24219 -2.00195,4.375 -1.33465,1.132812 -3.06317,1.699218 -5.18555,1.699218 -1.1198,0 -2.1517,-0.201823 -3.0957,-0.605468 -0.94402,-0.403646 -1.61785,-0.774739 -2.02149,-1.113282 l -0.39062,1.269532 -1.46485,0 -0.19531,-6.699219 1.34766,0 c 0.10416,0.507819 0.32551,1.100266 0.66406,1.777344 0.33854,0.677087 0.74869,1.289066 1.23047,1.835937 0.5078,0.572919 1.11653,1.05469 1.82617,1.445313 0.70963,0.390626 1.50715,0.585938 2.39258,0.585937 1.24999,1e-6 2.21353,-0.283202 2.89062,-0.849609 0.67707,-0.566404 1.01561,-1.37695 1.01563,-2.431641 -2e-5,-0.54687 -0.10744,-1.018875 -0.32227,-1.416015 -0.21485,-0.39713 -0.53061,-0.745437 -0.94726,-1.044922 -0.4297,-0.299472 -0.95705,-0.569654 -1.58203,-0.810547 -0.62501,-0.240878 -1.32163,-0.478508 -2.08985,-0.712891 -0.61199,-0.182283 -1.29232,-0.432934 -2.04101,-0.751953 -0.74871,-0.319001 -1.38998,-0.69335 -1.92383,-1.123047 -0.57292,-0.455718 -1.04167,-1.015614 -1.40625,-1.679687 -0.36459,-0.66405 -0.54688,-1.4453 -0.54688,-2.34375 0,-1.575505 0.58594,-2.910139 1.75782,-4.003907 1.17187,-1.09373 2.74087,-1.640605 4.70703,-1.640625 0.7552,2e-5 1.52668,0.09768 2.31445,0.292969 0.78775,0.195332 1.42902,0.429707 1.92383,0.703125 l 0.44922,-1.015625 1.40625,0 0.29297,6.191406 -1.34766,0 c -0.27345,-1.380193 -0.86264,-2.503239 -1.76758,-3.36914 -0.90496,-0.865868 -2.00847,-1.29881 -3.31055,-1.298828 -1.06771,1.8e-5 -1.90755,0.266945 -2.51953,0.800781 -0.61198,0.533871 -0.91797,1.178402 -0.91797,1.933594 0,0.585952 0.10091,1.074233 0.30274,1.464843 0.20182,0.390639 0.50455,0.72267 0.9082,0.996094 0.39062,0.26043 0.88216,0.50457 1.47461,0.732422 0.59244,0.227877 1.32486,0.485038 2.19727,0.771484 0.85936,0.273449 1.66991,0.592459 2.43164,0.957032 0.7617,0.364593 1.38996,0.768239 1.88476,1.210937 z"
           style="letter-spacing:-4.1500001px;fill:red;font-family:Georgia;-inkscape-font-specification:Georgia"
           id="path6721" />
        <path
           d="m 145.10234,49.095375 c -0.84636,0.351563 -1.64714,0.647787 -2.40234,0.888672 -0.75522,0.240885 -1.6797,0.361328 -2.77344,0.361328 -1.61459,0 -2.75065,-0.406901 -3.4082,-1.220703 -0.65756,-0.8138 -0.98633,-1.962888 -0.98633,-3.447266 l 0,-13.046875 -3.47656,0 0,-1.875 3.55469,0 0,-5.996093 3.55468,0 0,5.996093 5.52735,0 0,1.875 -5.48828,0 0,10.761719 c -1e-5,0.807298 0.0293,1.481125 0.0879,2.021485 0.0586,0.540368 0.19856,1.012373 0.41992,1.416015 0.20832,0.377607 0.52082,0.664065 0.9375,0.859375 0.41666,0.195315 0.97655,0.292971 1.67969,0.292969 0.32551,2e-6 0.80402,-0.02929 1.43554,-0.08789 0.6315,-0.05859 1.07746,-0.133461 1.33789,-0.224609 z"
           style="letter-spacing:-4.1500001px;fill:red;font-family:Georgia;-inkscape-font-specification:Georgia"
           id="path6723" />
        <path
           d="m 159.99531,45.403969 c -0.8073,1.536461 -1.88803,2.760418 -3.24218,3.671875 -1.35418,0.911458 -2.91017,1.367187 -4.66797,1.367187 -1.54949,0 -2.90691,-0.273437 -4.07227,-0.820312 -1.16537,-0.546874 -2.12565,-1.289061 -2.88086,-2.226563 -0.75521,-0.937496 -1.31836,-2.031245 -1.68945,-3.28125 -0.3711,-1.249992 -0.55664,-2.571606 -0.55664,-3.964843 0,-1.249989 0.19857,-2.477202 0.5957,-3.681641 0.39714,-1.204412 0.97982,-2.288396 1.74805,-3.251953 0.74218,-0.924462 1.66341,-1.669904 2.76367,-2.236328 1.10025,-0.566387 2.33398,-0.84959 3.70117,-0.84961 1.40624,2e-5 2.61067,0.221374 3.61328,0.664063 1.00259,0.442727 1.8164,1.048195 2.44141,1.816406 0.59894,0.729183 1.04491,1.588558 1.33789,2.578125 0.29295,0.989597 0.43944,2.063815 0.43945,3.222656 l 0,1.289063 -12.7539,0 c -1e-5,1.26303 0.12044,2.408862 0.36133,3.4375 0.24088,1.028652 0.62173,1.933599 1.14257,2.714844 0.50781,0.755211 1.17187,1.350914 1.99219,1.787109 0.8203,0.4362 1.79687,0.654299 2.92969,0.654297 1.15884,2e-6 2.15819,-0.27018 2.99805,-0.810547 0.83982,-0.540361 1.65037,-1.513668 2.43164,-2.919922 z m -4.3164,-7.34375 c -2e-5,-0.729154 -0.0619,-1.510403 -0.18555,-2.34375 -0.12371,-0.833318 -0.32228,-1.529932 -0.5957,-2.089844 -0.29949,-0.598941 -0.70965,-1.087222 -1.23047,-1.464844 -0.52085,-0.377586 -1.19142,-0.566387 -2.01172,-0.566406 -1.3672,1.9e-5 -2.50326,0.569679 -3.4082,1.708985 -0.90496,1.139338 -1.39649,2.724623 -1.47461,4.755859 z"
           style="letter-spacing:-4.1500001px;fill:red;font-family:Georgia;-inkscape-font-specification:Georgia"
           id="path6725" />
        <path
           d="m 172.85703,33.157875 c -1e-5,0.664079 -0.16277,1.253271 -0.48828,1.767578 -0.32554,0.514338 -0.82684,0.771499 -1.50391,0.771485 -0.72918,1.4e-5 -1.28582,-0.188788 -1.66992,-0.566407 -0.38412,-0.377589 -0.57618,-0.794255 -0.57617,-1.25 -1e-5,-0.286442 0.0228,-0.546858 0.0684,-0.78125 0.0456,-0.234357 0.0879,-0.468732 0.12695,-0.703125 -0.61199,1.8e-5 -1.32813,0.247414 -2.14843,0.742188 -0.82033,0.494808 -1.51694,1.197932 -2.08985,2.109375 l 0,11.210937 c -1e-5,0.455733 0.0879,0.826826 0.26367,1.113282 0.17578,0.28646 0.45247,0.501304 0.83008,0.644531 0.32551,0.13021 0.74543,0.227866 1.25977,0.292969 0.51431,0.0651 0.96027,0.110678 1.33789,0.136718 l 0,1.289063 -10.15625,0 0,-1.289063 c 0.29948,-0.02604 0.60872,-0.05208 0.92773,-0.07813 0.31901,-0.02604 0.5957,-0.07812 0.83008,-0.15625 0.36458,-0.117185 0.63476,-0.322263 0.81055,-0.615234 0.17577,-0.292966 0.26367,-0.673825 0.26367,-1.142578 l 0,-11.894531 c 0,-0.403631 -0.0944,-0.800766 -0.2832,-1.191407 -0.18881,-0.390608 -0.45248,-0.703107 -0.79102,-0.9375 -0.2474,-0.156232 -0.54037,-0.270164 -0.87891,-0.341796 -0.33854,-0.0716 -0.70312,-0.120425 -1.09375,-0.146485 l 0,-1.269531 6.40625,-0.429688 0.27344,0.273438 0,2.714844 0.0977,0 c 0.80728,-1.05467 1.70572,-1.855451 2.69531,-2.402344 0.98957,-0.546856 1.89452,-0.820293 2.71484,-0.820313 0.8203,2e-5 1.48762,0.266947 2.00196,0.800782 0.5143,0.533872 0.77147,1.250017 0.77148,2.148437 z"
           style="letter-spacing:-4.1500001px;fill:red;font-family:Georgia;-inkscape-font-specification:Georgia"
           id="path6727" />
        <path
           d="m 193.65859,37.220375 c 0.58592,0.651054 1.01886,1.363944 1.29883,2.138672 0.27993,0.774749 0.4199,1.676441 0.41992,2.705078 -2e-5,2.447922 -0.90497,4.466149 -2.71484,6.054688 -1.80991,1.588542 -4.05601,2.382812 -6.73828,2.382812 -1.23699,0 -2.47397,-0.192057 -3.71094,-0.576172 -1.23699,-0.384114 -2.30469,-0.849608 -3.20313,-1.396484 l -0.83984,1.425781 -1.5625,0 -0.27344,-9.492187 1.58203,0 c 0.32552,1.171883 0.70638,2.229825 1.14258,3.173828 0.43619,0.944016 1.01237,1.826176 1.72852,2.646484 0.67707,0.768232 1.46809,1.380211 2.37304,1.835938 0.90494,0.45573 1.95637,0.683595 3.1543,0.683593 0.89843,2e-6 1.68293,-0.117186 2.35352,-0.351562 0.67055,-0.234373 1.21417,-0.566404 1.63086,-0.996094 0.41665,-0.429684 0.72589,-0.934241 0.92773,-1.513672 0.20181,-0.579422 0.30272,-1.246739 0.30274,-2.001953 -2e-5,-1.106764 -0.31252,-2.138664 -0.9375,-3.095703 -0.62502,-0.957021 -1.55601,-1.682932 -2.79297,-2.177734 -0.84637,-0.33853 -1.81642,-0.712879 -2.91016,-1.123047 -1.09376,-0.410144 -2.03777,-0.797513 -2.83203,-1.16211 -1.56251,-0.70311 -2.7767,-1.624333 -3.64258,-2.763671 -0.86589,-1.139306 -1.29883,-2.626935 -1.29883,-4.462891 0,-1.054666 0.21484,-2.037738 0.64453,-2.949219 0.42969,-0.911433 1.04167,-1.725235 1.83594,-2.441406 0.7552,-0.677057 1.64713,-1.207655 2.67578,-1.591797 1.02864,-0.384086 2.10286,-0.576143 3.22266,-0.576172 1.27603,2.9e-5 2.41861,0.195341 3.42773,0.585938 1.0091,0.390652 1.93033,0.846381 2.76368,1.367187 l 0.80078,-1.328125 1.5625,0 0.15625,9.199219 -1.58203,0 c -0.28648,-1.054668 -0.60875,-2.063782 -0.9668,-3.027344 -0.35809,-0.963519 -0.82359,-1.835914 -1.39649,-2.617187 -0.55991,-0.755184 -1.2435,-1.357397 -2.05078,-1.806641 -0.8073,-0.449192 -1.79688,-0.673801 -2.96875,-0.673828 -1.23699,2.7e-5 -2.29167,0.397162 -3.16406,1.191406 -0.8724,0.794296 -1.3086,1.764347 -1.30859,2.910156 -1e-5,1.197938 0.27994,2.190776 0.83984,2.978516 0.55989,0.787779 1.37369,1.435565 2.44141,1.943359 0.95051,0.455747 1.88475,0.849627 2.80273,1.181641 0.91796,0.332047 1.80663,0.686865 2.66602,1.064453 0.78123,0.338557 1.53318,0.722671 2.25586,1.152344 0.72263,0.429701 1.35089,0.931003 1.88476,1.503906 z"
           style="letter-spacing:-4.1500001px;fill:red;font-family:Georgia;-inkscape-font-specification:Georgia"
           id="path6729" />
        <path
           d="m 192.71172,56.224281 c 0,-0.651047 0.17904,-1.181645 0.53711,-1.591796 0.35807,-0.410161 0.80404,-0.615239 1.33789,-0.615235 0.41667,-4e-6 0.77474,0.07812 1.07422,0.234375 0.29948,0.156246 0.5664,0.358068 0.80078,0.605469 0.19531,0.195307 0.40364,0.462234 0.625,0.800781 0.22135,0.338536 0.39713,0.618483 0.52735,0.839844 0.65103,-0.351569 1.42903,-1.269537 2.33398,-2.753906 0.90494,-1.484378 1.55924,-2.78646 1.96289,-3.90625 -1.23699,-3.085935 -2.35678,-5.846348 -3.35937,-8.28125 -1.00261,-2.434885 -2.05079,-4.954414 -3.14454,-7.558594 -0.24739,-0.598942 -0.66406,-1.064436 -1.25,-1.396484 -0.58593,-0.332014 -1.17187,-0.543602 -1.75781,-0.634766 l 0,-1.289063 8.78906,0 0,1.367188 c -0.39063,0.01304 -0.85938,0.09442 -1.40625,0.244141 -0.54688,0.149757 -0.82031,0.322283 -0.82031,0.517578 0,0.07814 0.0293,0.20835 0.0879,0.390625 0.0586,0.182308 0.12695,0.37111 0.20508,0.566406 0.49479,1.289077 1.24999,3.147799 2.26563,5.576172 1.01561,2.428393 1.80337,4.371751 2.36328,5.830078 0.58592,-1.393223 1.19465,-2.835279 1.82617,-4.326172 0.6315,-1.490875 1.33788,-3.251941 2.11914,-5.283203 0.0911,-0.247381 0.22134,-0.589178 0.39062,-1.025391 0.16926,-0.436182 0.2539,-0.81053 0.25391,-1.123047 -1e-5,-0.338524 -0.29624,-0.654279 -0.88867,-0.947265 -0.59246,-0.292951 -1.15561,-0.471987 -1.68945,-0.53711 l 0,-1.25 7.14843,0 0,1.210938 c -0.39064,0.06512 -0.90496,0.289731 -1.54297,0.673828 -0.63803,0.384132 -1.11329,0.927751 -1.42578,1.630859 -1.54949,3.593763 -2.92644,6.868499 -4.13086,9.824219 -1.20443,2.955732 -2.11915,5.130209 -2.74414,6.523438 -0.82032,1.822914 -1.55274,3.245439 -2.19726,4.267578 -0.64454,1.022129 -1.2728,1.826165 -1.88477,2.412109 -0.59896,0.546867 -1.14258,0.914706 -1.63086,1.103516 -0.48828,0.188793 -0.99284,0.283194 -1.51367,0.283203 -1.01563,-9e-6 -1.81315,-0.240894 -2.39258,-0.722656 -0.57942,-0.481779 -0.86914,-1.035163 -0.86914,-1.660157 z"
           style="letter-spacing:-4.1500001px;fill:red;font-family:Georgia;-inkscape-font-specification:Georgia"
           id="path6731" />
        <path
           d="m 222.4289,40.501625 c 0.53384,0.468759 0.944,1.009123 1.23047,1.621094 0.28644,0.611986 0.42967,1.360684 0.42969,2.246094 -2e-5,1.783858 -0.66734,3.24219 -2.00196,4.375 -1.33464,1.132812 -3.06316,1.699218 -5.18554,1.699218 -1.1198,0 -2.1517,-0.201823 -3.09571,-0.605468 -0.94401,-0.403646 -1.61784,-0.774739 -2.02148,-1.113282 l -0.39063,1.269532 -1.46484,0 -0.19531,-6.699219 1.34765,0 c 0.10417,0.507819 0.32552,1.100266 0.66407,1.777344 0.33853,0.677087 0.74869,1.289066 1.23047,1.835937 0.5078,0.572919 1.11653,1.05469 1.82617,1.445313 0.70963,0.390626 1.50715,0.585938 2.39258,0.585937 1.24999,1e-6 2.21353,-0.283202 2.89062,-0.849609 0.67707,-0.566404 1.01561,-1.37695 1.01563,-2.431641 -2e-5,-0.54687 -0.10744,-1.018875 -0.32227,-1.416015 -0.21486,-0.39713 -0.53061,-0.745437 -0.94727,-1.044922 -0.42969,-0.299472 -0.95704,-0.569654 -1.58203,-0.810547 -0.62501,-0.240878 -1.32162,-0.478508 -2.08984,-0.712891 -0.61199,-0.182283 -1.29232,-0.432934 -2.04102,-0.751953 -0.7487,-0.319001 -1.38997,-0.69335 -1.92382,-1.123047 -0.57292,-0.455718 -1.04167,-1.015614 -1.40625,-1.679687 -0.36459,-0.66405 -0.54688,-1.4453 -0.54688,-2.34375 0,-1.575505 0.58594,-2.910139 1.75781,-4.003907 1.17187,-1.09373 2.74088,-1.640605 4.70703,-1.640625 0.7552,2e-5 1.52669,0.09768 2.31446,0.292969 0.78775,0.195332 1.42902,0.429707 1.92383,0.703125 l 0.44921,-1.015625 1.40625,0 0.29297,6.191406 -1.34765,0 c -0.27345,-1.380193 -0.86265,-2.503239 -1.76758,-3.36914 -0.90496,-0.865868 -2.00847,-1.29881 -3.31055,-1.298828 -1.06771,1.8e-5 -1.90756,0.266945 -2.51953,0.800781 -0.61198,0.533871 -0.91797,1.178402 -0.91797,1.933594 0,0.585952 0.10091,1.074233 0.30274,1.464843 0.20181,0.390639 0.50455,0.72267 0.9082,0.996094 0.39062,0.26043 0.88215,0.50457 1.47461,0.732422 0.59244,0.227877 1.32486,0.485038 2.19726,0.771484 0.85937,0.273449 1.66991,0.592459 2.43165,0.957032 0.7617,0.364593 1.38996,0.768239 1.88476,1.210937 z"
           style="letter-spacing:-4.1500001px;fill:red;font-family:Georgia;-inkscape-font-specification:Georgia"
           id="path6733" />
        <path
           d="m 234.72422,49.095375 c -0.84637,0.351563 -1.64715,0.647787 -2.40234,0.888672 -0.75522,0.240885 -1.6797,0.361328 -2.77344,0.361328 -1.61459,0 -2.75066,-0.406901 -3.40821,-1.220703 -0.65755,-0.8138 -0.98633,-1.962888 -0.98632,-3.447266 l 0,-13.046875 -3.47657,0 0,-1.875 3.55469,0 0,-5.996093 3.55469,0 0,5.996093 5.52734,0 0,1.875 -5.48828,0 0,10.761719 c -1e-5,0.807298 0.0293,1.481125 0.0879,2.021485 0.0586,0.540368 0.19856,1.012373 0.41992,1.416015 0.20833,0.377607 0.52083,0.664065 0.9375,0.859375 0.41666,0.195315 0.97656,0.292971 1.67969,0.292969 0.32551,2e-6 0.80403,-0.02929 1.43555,-0.08789 0.6315,-0.05859 1.07746,-0.133461 1.33789,-0.224609 z"
           style="letter-spacing:-4.1500001px;fill:red;font-family:Georgia;-inkscape-font-specification:Georgia"
           id="path6735" />
        <path
           d="m 249.61719,45.403969 c -0.80731,1.536461 -1.88803,2.760418 -3.24218,3.671875 -1.35418,0.911458 -2.91017,1.367187 -4.66797,1.367187 -1.54949,0 -2.90691,-0.273437 -4.07227,-0.820312 -1.16537,-0.546874 -2.12565,-1.289061 -2.88086,-2.226563 -0.75521,-0.937496 -1.31836,-2.031245 -1.68945,-3.28125 -0.3711,-1.249992 -0.55664,-2.571606 -0.55664,-3.964843 0,-1.249989 0.19857,-2.477202 0.5957,-3.681641 0.39714,-1.204412 0.97982,-2.288396 1.74805,-3.251953 0.74218,-0.924462 1.66341,-1.669904 2.76367,-2.236328 1.10025,-0.566387 2.33398,-0.84959 3.70117,-0.84961 1.40624,2e-5 2.61067,0.221374 3.61328,0.664063 1.00259,0.442727 1.81639,1.048195 2.44141,1.816406 0.59894,0.729183 1.0449,1.588558 1.33789,2.578125 0.29295,0.989597 0.43944,2.063815 0.43945,3.222656 l 0,1.289063 -12.7539,0 c -1e-5,1.26303 0.12044,2.408862 0.36133,3.4375 0.24088,1.028652 0.62173,1.933599 1.14257,2.714844 0.50781,0.755211 1.17187,1.350914 1.99219,1.787109 0.8203,0.4362 1.79687,0.654299 2.92969,0.654297 1.15884,2e-6 2.15819,-0.27018 2.99805,-0.810547 0.83982,-0.540361 1.65037,-1.513668 2.43164,-2.919922 z m -4.3164,-7.34375 c -2e-5,-0.729154 -0.0619,-1.510403 -0.18555,-2.34375 -0.12371,-0.833318 -0.32228,-1.529932 -0.5957,-2.089844 -0.29949,-0.598941 -0.70965,-1.087222 -1.23047,-1.464844 -0.52085,-0.377586 -1.19142,-0.566387 -2.01172,-0.566406 -1.3672,1.9e-5 -2.50326,0.569679 -3.4082,1.708985 -0.90496,1.139338 -1.39649,2.724623 -1.47461,4.755859 z"
           style="letter-spacing:-4.1500001px;fill:red;font-family:Georgia;-inkscape-font-specification:Georgia"
           id="path6737" />
        <path
           d="m 280.72109,49.935219 -9.39453,0 0,-1.289063 c 0.29945,-0.02604 0.60219,-0.05208 0.9082,-0.07813 0.30597,-0.02604 0.57615,-0.07812 0.81055,-0.15625 0.36456,-0.117185 0.63474,-0.322263 0.81055,-0.615234 0.17575,-0.292966 0.26364,-0.673825 0.26367,-1.142578 l 0,-9.941406 c -3e-5,-1.354152 -0.30927,-2.399073 -0.92774,-3.134766 -0.61851,-0.73566 -1.39,-1.103498 -2.31445,-1.103516 -0.63804,1.8e-5 -1.237,0.09767 -1.79687,0.292969 -0.55992,0.19533 -1.07424,0.468767 -1.54297,0.820313 -0.37763,0.286474 -0.69338,0.595719 -0.94727,0.927734 -0.25392,0.332046 -0.44598,0.608739 -0.57617,0.830078 l 0,11.113281 c -2e-5,0.455733 0.0781,0.830081 0.23438,1.123047 0.15622,0.292971 0.42315,0.51758 0.80078,0.673828 0.29945,0.11719 0.56964,0.20508 0.81054,0.263672 0.24087,0.0586 0.55662,0.100913 0.94727,0.126953 l 0,1.289063 -9.19922,0 0,-1.289063 c 0.29947,-0.02604 0.58918,-0.05208 0.86914,-0.07813 0.27993,-0.02604 0.5371,-0.07812 0.77149,-0.15625 0.36456,-0.117185 0.63475,-0.322263 0.81054,-0.615234 0.17577,-0.292966 0.26366,-0.673825 0.26367,-1.142578 l 0,-9.941406 c -1e-5,-1.354152 -0.30926,-2.399073 -0.92773,-3.134766 -0.6185,-0.73566 -1.38999,-1.103498 -2.31445,-1.103516 -0.63804,1.8e-5 -1.23699,0.100929 -1.79688,0.302735 -0.5599,0.20184 -1.07423,0.478532 -1.54297,0.830078 -0.37761,0.286474 -0.69662,0.60874 -0.95703,0.966797 -0.26042,0.358088 -0.45574,0.62827 -0.58594,0.810547 l 0,11.035156 c 0,0.442711 0.0911,0.813805 0.27344,1.113281 0.18228,0.299481 0.45572,0.527346 0.82031,0.683594 0.27343,0.13021 0.55338,0.227866 0.83985,0.292969 0.28645,0.0651 0.60546,0.110678 0.95703,0.136718 l 0,1.289063 -9.35547,0 0,-1.289063 c 0.29948,-0.02604 0.60872,-0.05208 0.92773,-0.07813 0.31901,-0.02604 0.5957,-0.07812 0.83008,-0.15625 0.36458,-0.117185 0.63476,-0.322263 0.81055,-0.615234 0.17578,-0.292966 0.26367,-0.673825 0.26367,-1.142578 l 0,-11.972656 c 0,-0.416651 -0.0944,-0.791 -0.2832,-1.123047 -0.18881,-0.332015 -0.45248,-0.615218 -0.79102,-0.84961 -0.2474,-0.156232 -0.55339,-0.283185 -0.91797,-0.380859 -0.36458,-0.09764 -0.74219,-0.159487 -1.13281,-0.185547 l 0,-1.269531 6.44531,-0.429688 0.27344,0.273438 0,2.753906 0.13672,0 c 0.32551,-0.325504 0.72265,-0.709618 1.19141,-1.152344 0.46874,-0.44269 0.90493,-0.800762 1.30859,-1.074218 0.45572,-0.312481 1.02538,-0.572898 1.70898,-0.78125 0.68359,-0.208314 1.42252,-0.31248 2.2168,-0.3125 1.24999,2e-5 2.3242,0.335306 3.22266,1.005859 0.89842,0.670591 1.54295,1.481137 1.93359,2.431641 0.46873,-0.455713 0.88214,-0.856103 1.24024,-1.201172 0.35805,-0.345034 0.83005,-0.712873 1.41601,-1.103516 0.49477,-0.338522 1.07745,-0.61196 1.74805,-0.820312 0.67055,-0.208314 1.41599,-0.31248 2.23633,-0.3125 1.62757,2e-5 2.91663,0.533873 3.86718,1.601562 0.95049,1.067726 1.42575,2.708349 1.42579,4.921875 l 0,9.785156 c -4e-5,0.455733 0.0781,0.830081 0.23437,1.123047 0.15622,0.292971 0.42314,0.51758 0.80078,0.673828 0.29945,0.11719 0.59567,0.20508 0.88867,0.263672 0.29294,0.0586 0.62171,0.100913 0.98633,0.126953 z"
           style="letter-spacing:-4.1500001px;fill:red;font-family:Georgia;-inkscape-font-specification:Georgia"
           id="path6739" />
      </g>
      <g
         transform="scale(1.0267638,0.97393384)"
         style="font-size:14.89899445px;font-style:normal;font-variant:normal;font-weight:normal;font-stretch:normal;text-align:center;line-height:125%;letter-spacing:0px;word-spacing:0px;writing-mode:lr-tb;text-anchor:middle;fill:red;fill-opacity:1;stroke:none;font-family:Times New Roman;-inkscape-font-specification:Times New Roman"
         id="text6704">
        <path
           d="m 287.79696,1014.1516 -2.51712,0 0,-0.3783 c 0.0776,0 0.18793,-0.01 0.33101,-0.018 0.14306,-0.012 0.23885,-0.03 0.28736,-0.055 0.0776,-0.053 0.13093,-0.097 0.16005,-0.1309 0.0291,-0.034 0.0436,-0.087 0.0436,-0.1601 l 0,-3.281 -0.10913,0 -1.77507,3.863 -0.2328,0 -1.72415,-3.9357 -0.10913,0 0,2.6481 c 0,0.257 0.0158,0.4522 0.0473,0.5856 0.0315,0.1334 0.0861,0.234 0.16369,0.3019 0.063,0.039 0.16974,0.079 0.32009,0.12 0.15034,0.041 0.28129,0.062 0.39285,0.062 l 0,0.3783 -2.2916,0 0,-0.3638 c 0.0776,-0.014 0.19278,-0.033 0.34556,-0.054 0.15277,-0.022 0.26795,-0.059 0.34556,-0.1128 0.0824,-0.063 0.13821,-0.1503 0.16732,-0.2619 0.0291,-0.1115 0.0436,-0.3201 0.0437,-0.6256 l 0,-2.5244 c -10e-6,-0.1164 -0.0182,-0.2134 -0.0546,-0.291 -0.0364,-0.078 -0.0885,-0.1455 -0.15641,-0.2037 -0.0728,-0.058 -0.16369,-0.1006 -0.27281,-0.1273 -0.10913,-0.027 -0.23402,-0.045 -0.37466,-0.055 l 0,-0.371 2.02243,0 1.535,3.4337 1.28038,-2.8153 c 0.0533,-0.1213 0.0933,-0.2365 0.12004,-0.3456 0.0267,-0.1091 0.0473,-0.2001 0.0618,-0.2728 l 1.94968,0 0,0.371 c -0.0825,0 -0.18795,0.017 -0.31646,0.036 -0.12854,0.019 -0.21947,0.039 -0.27281,0.058 -0.0728,0.014 -0.11884,0.048 -0.13822,0.1018 -0.0194,0.053 -0.0291,0.1067 -0.0291,0.1601 l 0,3.521 c -2e-5,0.068 0.01,0.1225 0.0291,0.1637 0.0194,0.041 0.0655,0.079 0.13822,0.1128 0.0485,0.014 0.13215,0.033 0.25098,0.054 0.11881,0.022 0.23157,0.033 0.33829,0.033 z m -7.85689,-3.5502 -0.3492,0 c -0.0485,-0.16 -0.14672,-0.3601 -0.29463,-0.6002 -0.14793,-0.24 -0.29222,-0.3746 -0.43286,-0.4037 -0.1067,-0.01 -0.21098,-0.017 -0.31282,-0.022 -0.10185,-0 -0.18673,-0.01 -0.25462,-0.01 l -0.35647,0 0,3.812 c -10e-6,0.068 0.0109,0.1249 0.0327,0.171 0.0218,0.046 0.0715,0.086 0.14914,0.12 0.0485,0.015 0.13822,0.035 0.26917,0.062 0.13095,0.027 0.25219,0.04 0.36375,0.04 l 0,0.3783 -2.56804,0 0,-0.3783 c 0.097,0 0.21582,-0.01 0.35647,-0.025 0.14064,-0.017 0.23279,-0.033 0.27644,-0.047 0.0728,-0.024 0.12125,-0.063 0.1455,-0.1164 0.0242,-0.053 0.0364,-0.1067 0.0364,-0.16 l 0,-3.8557 -0.35647,0 c -0.0728,0 -0.16975,0 -0.291,0.011 -0.12125,0.01 -0.2134,0.013 -0.27645,0.018 -0.15035,0.024 -0.29706,0.1588 -0.44013,0.4037 -0.14307,0.245 -0.23886,0.445 -0.28736,0.6002 l -0.34919,0 0,-1.4404 4.93966,0 z"
           style="font-family:Georgia;-inkscape-font-specification:Georgia"
           id="path6742" />
      </g>
    </g>
  </g>
</svg>
