<?xml version="1.0" encoding="UTF-8" standalone="no"?>
<svg
   xmlns:dc="http://purl.org/dc/elements/1.1/"
   xmlns:cc="http://creativecommons.org/ns#"
   xmlns:rdf="http://www.w3.org/1999/02/22-rdf-syntax-ns#"
   xmlns:svg="http://www.w3.org/2000/svg"
   xmlns="http://www.w3.org/2000/svg"
   xmlns:sodipodi="http://sodipodi.sourceforge.net/DTD/sodipodi-0.dtd"
   xmlns:inkscape="http://www.inkscape.org/namespaces/inkscape"
   sodipodi:docname="Nintendo Entertainment System.svg"
   inkscape:version="1.0 (4035a4fb49, 2020-05-01)"
   id="svg8"
   version="1.1"
   viewBox="0 0 115.94538 49.072948"
   height="49.072948mm"
   width="115.94538mm">
  <defs
     id="defs2">
    <clipPath
       clipPathUnits="userSpaceOnUse"
       id="clipPath849">
      <path
         d="M 0,595.276 H 841.89 V 0 H 0 Z"
         id="path847" />
    </clipPath>
    <pattern
       id="EMFhbasepattern"
       patternUnits="userSpaceOnUse"
       width="6"
       height="6"
       x="0"
       y="0" />
  </defs>
  <sodipodi:namedview
     inkscape:window-maximized="1"
     inkscape:window-y="-8"
     inkscape:window-x="-8"
     inkscape:window-height="1017"
     inkscape:window-width="1920"
     fit-margin-bottom="0"
     fit-margin-right="0"
     fit-margin-left="0"
     fit-margin-top="0"
     showgrid="false"
     inkscape:document-rotation="0"
     inkscape:current-layer="layer1"
     inkscape:document-units="mm"
     inkscape:cy="105.24361"
     inkscape:cx="309.82582"
     inkscape:zoom="1.4"
     inkscape:pageshadow="2"
     inkscape:pageopacity="0.0"
     borderopacity="1.0"
     bordercolor="#666666"
     pagecolor="#ffffff"
     id="base" />
  <metadata
     id="metadata5">
    <rdf:RDF>
      <cc:Work
         rdf:about="">
        <dc:format>image/svg+xml</dc:format>
        <dc:type
           rdf:resource="http://purl.org/dc/dcmitype/StillImage" />
        <dc:title></dc:title>
      </cc:Work>
    </rdf:RDF>
  </metadata>
  <g
     transform="translate(-8.4824183,-7.3377002)"
     id="layer1"
     inkscape:groupmode="layer"
     inkscape:label="Layer 1">
    <g
       id="g1252">
      <g
         id="g1201"
         transform="matrix(0.5828252,0,0,0.5828252,15.70805,-23.682291)">
        <path
           id="path867"
           style="fill:#f5d832;fill-opacity:1;fill-rule:nonzero;stroke:none;stroke-width:0.352778"
           d="M 18.932922,111.96968 H 8.0747748 v 10.63201 h 3.3714972 v -7.1127 c 0,-0.4505 0.372886,-0.82444 0.82303,-0.82444 h 5.838825 c 0.448028,0 0.824795,0.37394 0.824795,0.82444 v 7.1127 h 3.367264 v -7.1127 c 0,0 0.450497,-3.51931 -3.367264,-3.51931" />
        <path
           id="path869"
           style="fill:#f5d832;fill-opacity:1;fill-rule:nonzero;stroke:none;stroke-width:0.352778"
           d="m 112.739,111.96968 h -10.85885 v 10.63201 h 3.44346 v -7.1127 c 0,-0.4505 0.37677,-0.82444 0.75071,-0.82444 h 5.8413 c 0.44697,0 0.82338,0.37394 0.82338,0.82444 v 7.1127 h 3.36621 v -7.1127 c 0,0 0.44908,-3.51931 -3.36621,-3.51931" />
        <path
           id="path871"
           style="fill:#f5d832;fill-opacity:1;fill-rule:nonzero;stroke:none;stroke-width:0.352778"
           d="m 163.87167,111.96968 h -10.85674 v 10.63201 h 3.3715 v -7.1127 c 0,-0.4505 0.37112,-0.82444 0.82338,-0.82444 h 5.83848 c 0.44696,0 0.82338,0.37394 0.82338,0.82444 v 7.1127 h 3.36867 v -7.1127 c 0,0 0.44697,-3.51931 -3.36867,-3.51931" />
        <path
           id="path873"
           style="fill:#f5d832;fill-opacity:1;fill-rule:nonzero;stroke:none;stroke-width:0.352778"
           d="m 23.798786,114.66455 h 3.742619 c 0.374297,0 0.824794,0.37394 0.824794,0.82444 v 7.1127 h 3.590925 v -7.1127 c 0,-0.4505 0.376414,-0.82444 0.824442,-0.82444 h 3.742619 v -2.69487 H 23.798786 v 2.69487" />
        <path
           id="path875"
           style="fill:#f5d832;fill-opacity:1;fill-rule:nonzero;stroke:none;stroke-width:0.352778"
           d="m 168.66133,111.96968 v 2.69487 h 3.74509 c 0.44662,0 0.82338,0.37394 0.82338,0.82444 v 7.1127 h 3.74509 v -7.1127 c 0,-0.4505 0.29634,-0.82444 0.74542,-0.82444 h 3.74509 v -2.69487 h -12.80407" />
        <path
           id="path877"
           style="fill:#f5d832;fill-opacity:1;fill-rule:nonzero;stroke:none;stroke-width:0.352778"
           d="m 66.547337,114.66455 h 3.742973 c 0.448027,0 0.824441,0.37394 0.824441,0.82444 v 7.1127 h 3.74015 v -7.1127 c 0,-0.4505 0.376767,-0.82444 0.827264,-0.82444 h 3.74015 v -2.69487 H 66.547337 v 2.69487" />
        <path
           id="path879"
           style="fill:#f5d832;fill-opacity:1;fill-rule:nonzero;stroke:none;stroke-width:0.352778"
           d="m 96.04344,111.96968 h 3.592688 v 10.63166 H 96.04344 Z" />
        <path
           id="path881"
           style="fill:#f5d832;fill-opacity:1;fill-rule:nonzero;stroke:none;stroke-width:0.352778"
           d="m 90.27764,117.21231 h -6.061075 v -1.87255 c 0,-0.30127 0.44838,-0.67521 0.671689,-0.67521 h 4.566002 c 0.522464,0 0.823384,0.37394 0.823384,0.67521 v 1.87255 m -0.07514,-5.24263 h -5.913967 c -3.818113,0 -3.516841,3.51931 -3.516841,3.51931 v 7.1127 h 3.444875 v -2.69345 h 6.061075 v 2.69345 h 3.4417 v -7.1127 c 0,0 0.449086,-3.51931 -3.516842,-3.51931" />
        <path
           id="path883"
           style="fill:#f5d832;fill-opacity:1;fill-rule:nonzero;stroke:none;stroke-width:0.352778"
           d="m 61.755204,116.38892 c 0,0.52212 -0.222955,0.82339 -0.673805,0.82339 H 56.14004 c -0.223308,0 -0.522111,-0.30127 -0.522111,-0.82339 v -1.04916 c 0,-0.45049 0.298803,-0.82444 0.746831,-0.82444 h 4.716639 c 0.45085,0 0.673805,0.22225 0.673805,0.82444 v 1.04916 m -0.07373,-4.41924 h -9.582856 v 10.63201 h 3.519311 v -2.02318 c 0,-0.44908 0.298803,-0.67027 0.746831,-0.67027 h 4.716639 c 0.223661,0 0.673805,0.37394 0.673805,0.67027 v 2.02318 h 3.367617 v -1.64465 c 0,0 0.301272,-1.50283 -1.271411,-2.54987 1.048102,-0.74789 1.423458,-1.86796 1.4986,-2.5453 0.07408,-0.2988 0.07408,-0.52211 0.07408,-0.52211 0,0 0,-3.37008 -3.742619,-3.37008" />
        <path
           id="path885"
           style="fill:#f5d832;fill-opacity:1;fill-rule:nonzero;stroke:none;stroke-width:0.352778"
           d="m -6.0747888,119.08238 c 0,0 -0.3732388,3.51931 3.5203694,3.51931 h 8.3851748 v -2.69345 h -7.7875693 c -0.5235222,0 -0.9740194,-0.45403 -0.9740194,-0.89888 0,-0.52423 0.3764139,-0.8255 0.9740194,-0.8255 h 7.3395415 v -1.87043 h -7.4891192 c -0.4480278,0 -0.8244417,-0.37394 -0.8244417,-0.82444 0,-0.4505 0.3764139,-0.82444 0.8244417,-0.82444 h 7.937147 v -2.69487 H -6.0747888 v 7.1127" />
        <path
           id="path887"
           style="fill:#f5d832;fill-opacity:1;fill-rule:nonzero;stroke:none;stroke-width:0.352778"
           d="m 38.09828,119.08238 c 0,0 -0.525992,3.51931 3.369733,3.51931 h 8.385175 v -2.69345 h -7.787569 c -0.525992,0 -0.97402,-0.45403 -0.97402,-0.89888 0,-0.52423 0.448028,-0.8255 0.97402,-0.8255 h 7.337072 v -1.87043 h -7.337072 c -0.525992,0 -0.97402,-0.37394 -0.97402,-0.82444 0,-0.4505 0.448028,-0.82444 0.97402,-0.82444 h 7.787569 v -2.69487 H 38.09828 v 7.1127" />
        <path
           id="path889"
           style="fill:#f5d832;fill-opacity:1;fill-rule:nonzero;stroke:none;stroke-width:0.352778"
           d="m 139.01565,119.08238 c 0,0 -0.37641,3.51931 3.44417,3.51931 h 8.45926 v -2.69345 h -7.86201 c -0.44908,0 -0.89817,-0.45403 -0.89817,-0.89888 0,-0.52423 0.30092,-0.8255 0.82515,-0.8255 h 7.33496 v -1.87043 h -7.33496 c -0.52423,0 -0.82515,-0.37394 -0.82515,-0.82444 0,-0.4505 0.30092,-0.82444 0.82515,-0.82444 h 7.93503 v -2.69487 h -11.90343 v 7.1127" />
        <path
           id="path891"
           style="fill:#f5d832;fill-opacity:1;fill-rule:nonzero;stroke:none;stroke-width:0.352778"
           d="m 133.42624,111.98379 h -15.05091 v 10.6299 h 3.14537 v -7.11059 c 0,-0.44803 0.37394,-0.82338 0.82338,-0.82338 h 2.54318 c 0.4512,0 0.82761,0.37535 0.82761,0.82338 v 7.11059 h 3.5172 v -7.11059 c 0,-0.44803 0.30092,-0.82338 0.82338,-0.82338 h 2.69593 c 0.29845,0 0.67486,0.37535 0.67486,0.82338 l 0.14605,7.11059 h 3.36868 v -7.11059 c 0,0 0.44908,-3.51931 -3.51473,-3.51931" />
        <path
           id="path893"
           style="fill:#f5d832;fill-opacity:1;fill-rule:nonzero;stroke:none;stroke-width:0.352778"
           d="m 85.562412,129.48721 h 3.816703 c 0.296333,0 0.672747,0.37641 0.672747,0.82338 v 7.1113 h 3.745441 l 0.148167,-7.1113 c 0,-0.44697 0.222956,-0.82338 0.674864,-0.82338 h 3.745089 v -2.69346 H 85.562412 v 2.69346" />
        <path
           id="path895"
           style="fill:#f5d832;fill-opacity:1;fill-rule:nonzero;stroke:none;stroke-width:0.352778"
           d="m 128.83449,126.79375 h -15.04633 v 10.62814 h 3.1429 v -7.1113 c 0,-0.44697 0.37394,-0.82338 0.82338,-0.82338 h 2.54529 c 0.44697,0 0.82092,0.37641 0.82092,0.82338 v 7.1113 h 3.51896 v -7.1113 c 0,-0.44697 0.29915,-0.82338 0.82585,-0.82338 h 2.69381 c 0.30092,0 0.67522,0.37641 0.67522,0.82338 l 0.15028,7.1113 h 3.36903 v -7.1113 c 0,0 0.44661,-3.51684 -3.51931,-3.51684" />
        <path
           id="path897"
           style="fill:#f5d832;fill-opacity:1;fill-rule:nonzero;stroke:none;stroke-width:0.352778"
           d="m 70.140732,126.79375 h -3.220508 v 3.9684 c 0,0.44485 -0.448028,0.82091 -0.820914,0.82091 h -4.79425 c -0.448028,0 -0.823384,-0.37606 -0.823384,-0.82091 v -3.9684 H 57.11406 v 3.89326 c 0,0 -0.373945,3.58986 3.519311,3.58986 h 1.121833 v 3.14502 h 3.744383 v -3.14502 h 1.271412 c 3.893255,0 3.369733,-3.51472 3.369733,-3.51472 v -3.9684" />
        <path
           id="path899"
           style="fill:#f5d832;fill-opacity:1;fill-rule:nonzero;stroke:none;stroke-width:0.352778"
           d="m 99.786059,133.90505 c 0,0 -0.524228,3.51684 3.369031,3.51684 h 8.38411 v -2.69558 h -7.78439 c -0.52458,0 -0.97614,-0.37429 -0.97614,-0.89887 0,-0.52212 0.45156,-0.74542 0.97614,-0.74542 h 7.33495 V 131.207 h -7.33495 c -0.52458,0 -0.97614,-0.44485 -0.97614,-0.89641 0,-0.44697 0.45156,-0.82338 0.97614,-0.82338 h 7.78439 v -2.69346 H 99.786059 v 7.1113" />
        <path
           id="path901"
           style="fill:#f5d832;fill-opacity:1;fill-rule:nonzero;stroke:none;stroke-width:0.352778"
           d="m 80.920915,131.13151 h -5.017911 c -0.597253,0 -0.970139,-0.22119 -0.970139,-0.74331 0,-0.45367 0.372886,-0.90099 0.820914,-0.90099 h 8.534752 v -2.69346 h -9.355666 c -1.723319,0 -3.218392,1.42099 -3.218392,3.06987 0,2.31987 1.495073,3.2184 3.517195,3.2184 h 5.015089 c 0.524933,0 1.049161,0.2233 1.049161,0.74542 0,0.44943 -0.375003,0.89887 -0.8255,0.89887 h -8.755945 v 2.69558 h 9.581445 c 1.571625,0 3.21945,-1.27247 3.21945,-3.06987 0,-2.16853 -1.72332,-3.22051 -3.594453,-3.22051" />
        <path
           id="path903"
           style="fill:#f5d832;fill-opacity:1;fill-rule:nonzero;stroke:none;stroke-width:0.352778"
           d="m 52.397421,131.13151 h -4.865864 c -0.600075,0 -1.048102,-0.22119 -1.048102,-0.74331 0,-0.45367 0.448027,-0.90099 0.898524,-0.90099 h 8.534753 v -2.69346 h -9.359194 c -1.871486,0 -3.369733,1.42099 -3.369733,3.06987 0,2.31987 1.647825,3.2184 3.668536,3.2184 h 4.865863 c 0.600075,0 1.048103,0.2233 1.048103,0.74542 0,0.44943 -0.448028,0.89887 -0.898525,0.89887 h -8.683977 v 2.69558 h 9.582502 c 1.722261,0 3.296003,-1.27247 3.296003,-3.06987 0,-2.16853 -1.648178,-3.22051 -3.668889,-3.22051" />
      </g>
      <g
         id="g1153"
         transform="matrix(0.57417189,0,0,0.57417189,5.131215,-26.805637)">
        <path
           style="fill:#86928e;fill-opacity:1;stroke:#86928e;stroke-width:8.025;stroke-miterlimit:4;stroke-dasharray:none;stroke-opacity:1"
           class="logo"
           d="M 35.211217,109.18155 C 20.007844,109.17663 9.8490853,98.868608 9.8490853,86.370392 v 0 C 9.8490853,73.87217 20.03102,63.4459 35.188041,63.477928 H 178.4201 c 15.15702,-0.03204 25.33895,10.394242 25.33895,22.892464 v 0 c 0,12.498216 -10.15875,22.806238 -25.36213,22.811158 z m 0.04636,-40.081516 c -12.036004,0.02217 -19.423958,7.718692 -19.423958,17.240793 v 0 c 0,9.519638 7.341602,17.280223 19.423958,17.238333 H 178.35057 c 12.08235,0.0394 19.42653,-7.718695 19.42653,-17.238333 v 0 c 0,-9.519638 -7.38796,-17.216158 -19.42396,-17.238329 z"
           id="path1065-8" />
        <path
           style="fill:#86928e;fill-opacity:1;stroke:none;stroke-width:0.26046px;stroke-linecap:butt;stroke-linejoin:miter;stroke-opacity:1"
           d="m 31.081167,66.284425 -12.46495,4.837145 -4.092969,9.116157 -1.86044,9.674289 2.418573,7.999892 7.255716,6.883632 9.67429,3.34879 144.928293,0.18604 13.95329,-4.09297 5.95341,-8.371976 4.09297,-3.720879 -0.18605,-9.116156 -4.09297,-8.371982 -8.55802,-6.139453 -9.67429,-2.976704 z"
           id="path1089" />
        <path
           id="path1065"
           d="M 35.211224,109.18155 C 20.007851,109.17663 9.8490922,98.868608 9.8490922,86.370392 v 0 C 9.8490922,73.87217 20.031027,63.4459 35.188048,63.477928 H 178.4201 c 15.15702,-0.03204 25.33895,10.394242 25.33895,22.892464 v 0 c 0,12.498216 -10.15875,22.806238 -25.36213,22.811158 z m 0.04636,-40.081516 C 23.22158,69.122201 15.833626,76.818726 15.833626,86.340827 v 0 c 0,9.519639 7.341602,17.280223 19.423958,17.238333 H 178.35057 c 12.08235,0.0394 19.42653,-7.718694 19.42653,-17.238333 v 0 c 0,-9.519638 -7.38796,-17.216158 -19.42396,-17.238329 z"
           class="logo"
           style="fill:#ffffff;fill-opacity:1;stroke-width:0.0251878" />
        <g
           transform="translate(0,33.072917)"
           id="g1122">
          <polygon
             style="fill:#ffffff;fill-opacity:1"
             class="logo"
             points="1017.3,1362.7 746.9,1362.7 747,489.4 1019.1,489.4 1395.5,1098.4 1395.3,489.4 1665.3,489.4 1665.3,1362.7 1395.7,1362.7 1017.3,753.7 "
             id="polygon1045"
             transform="matrix(0.02615847,0,0,0.02615847,6.7805443,29.271087)" />
          <polygon
             style="fill:#ffffff;fill-opacity:1"
             class="logo"
             points="3396.1,1362.7 3133.1,1362.7 3133.2,783.1 2990.4,783.1 2990.4,696.9 3133.3,696.8 3133.1,579.2 3395.9,579.2 3395.9,696.7 3538.1,696.7 3538.1,783.1 3395.9,783.1 "
             id="polygon1047"
             transform="matrix(0.02615847,0,0,0.02615847,6.7805443,29.271087)" />
          <polygon
             style="fill:#ffffff;fill-opacity:1"
             class="logo"
             points="2078.2,1362.7 1815.6,1362.7 1815.6,781.9 2078.2,782 "
             id="polygon1049"
             transform="matrix(0.02615847,0,0,0.02615847,6.7805443,29.271087)" />
          <polygon
             style="fill:#ffffff;fill-opacity:1"
             class="logo"
             points="2078.2,667.7 1815,667.7 1815,489.2 2078.2,489.2 "
             id="polygon1051"
             transform="matrix(0.02615847,0,0,0.02615847,6.7805443,29.271087)" />
          <path
             style="fill:#ffffff;fill-opacity:1;stroke-width:0.0261585"
             class="logo"
             d="m 177.41747,57.200485 c 0,0 -0.003,2.296714 -0.003,3.217492 0,2.422275 -1.43087,3.421528 -2.80681,3.421528 -1.37855,0 -2.81465,-0.999253 -2.81465,-3.421528 0,-0.920778 0.003,-3.27504 0.003,-3.27504 0,0 0.005,-2.247013 0.005,-3.167791 0,-2.411811 1.43871,-3.403217 2.8068,-3.403217 1.37071,0 2.80681,0.991406 2.80681,3.403217 0,0.920778 -0.003,2.623695 0.005,3.233187 z m -2.75972,-8.511966 c -5.54559,0 -10.03962,3.819137 -10.03962,8.530277 0,4.711141 4.49664,8.530277 10.03962,8.530277 5.5456,0 10.03962,-3.819136 10.03962,-8.530277 0,-4.71114 -4.49402,-8.530277 -10.03962,-8.530277 z"
             id="path1053" />
          <path
             style="fill:#ffffff;fill-opacity:1;stroke-width:0.0261585"
             class="logo"
             d="m 155.60131,42.073042 h 6.78027 v 22.844192 h -6.79074 c 0,0 -0.003,-0.737669 -0.003,-0.878925 -2.62893,1.6506 -5.5953,1.647984 -7.90509,0.570255 -0.61996,-0.287743 -4.69806,-2.244397 -4.69806,-7.531023 0,-4.010094 3.78251,-8.389022 8.73431,-7.954791 1.62967,0.143871 2.78849,0.737669 3.88715,1.355009 -0.005,-3.515699 -0.005,-8.404717 -0.005,-8.404717 z m 0.0497,15.171913 c 0,0 0,-1.904337 0,-2.715249 0,-2.349031 -1.62183,-2.94806 -2.68909,-2.94806 -1.09343,0 -2.69432,0.599029 -2.69432,2.94806 0,0.779522 0.003,2.707401 0.003,2.707401 0,0 -0.003,1.893874 -0.003,2.70217 0,2.346415 1.60089,2.961139 2.6917,2.961139 1.06988,0 2.69433,-0.614724 2.69433,-2.961139 0,-0.975711 -0.003,-2.694322 -0.003,-2.694322 z"
             id="path1055" />
          <path
             style="fill:#ffffff;fill-opacity:1;stroke-width:0.0261585"
             class="logo"
             d="m 77.225304,49.023348 c 2.568762,-0.07324 7.779529,1.608746 7.742908,7.622578 -0.0052,1.067265 -0.0026,8.266076 -0.0026,8.266076 h -6.824745 c 0,0 0,-9.027288 0,-9.97684 0,-1.323619 -1.26607,-2.796341 -3.139017,-2.796341 -1.87033,0 -3.261961,1.472722 -3.261961,2.796341 0,0.64873 0.0078,9.97684 0.0078,9.97684 h -6.819513 l -0.0026,-15.190223 6.824745,-0.0052 c 0,0 -0.0078,1.221601 0,1.598283 1.313155,-1.252991 3.204412,-2.226086 5.474967,-2.291482 z"
             id="path1057" />
          <path
             style="fill:#ffffff;fill-opacity:1;stroke-width:0.0261585"
             class="logo"
             d="m 133.05271,49.023348 c 2.56876,-0.07324 7.77953,1.608746 7.7429,7.622578 -0.005,1.067265 -0.003,8.266076 -0.003,8.266076 h -6.82475 c 0,0 0,-9.027288 0,-9.97684 0,-1.323619 -1.26607,-2.796341 -3.13901,-2.796341 -1.87033,0 -3.26196,1.472722 -3.26196,2.796341 0,0.64873 0.008,9.97684 0.008,9.97684 h -6.81951 l 0.005,-15.190223 6.8169,-0.0052 c 0,0 -0.008,1.221601 0,1.598283 1.31315,-1.252991 3.20703,-2.226086 5.47497,-2.291482 z"
             id="path1059" />
          <path
             style="fill:#ffffff;fill-opacity:1;stroke-width:0.0261585"
             class="logo"
             d="m 105.73019,55.021485 c -0.0105,-1.331466 0.0183,-2.220854 0.45515,-2.97945 0.53625,-0.936473 1.52243,-1.381167 2.41705,-1.386399 h -0.003 c 0.89462,0.0052 1.88079,0.449926 2.41704,1.386399 0.43685,0.761212 0.45516,1.6506 0.4447,2.982066 z m 5.70777,4.580348 c 0,0 0.005,0.06801 0.005,0.920778 0,2.77803 -1.82848,3.39537 -2.84343,3.39537 -1.01495,0 -2.87482,-0.61734 -2.87482,-3.39537 0,-0.831839 0.005,-3.1364 0.005,-3.1364 0,0 12.94059,0.0052 12.94059,-0.0026 0,-4.711141 -4.54896,-8.613984 -10.13641,-8.613984 -5.58745,0 -10.115473,3.819136 -10.115473,8.530277 0,4.71114 4.528023,8.527661 10.115473,8.527661 4.63528,0 8.55121,-2.644621 9.74665,-6.230948 z"
             id="path1061" />
          <path
             style="fill:#ffffff;fill-opacity:1;stroke-width:0.0261585"
             class="logo"
             d="m 185.76726,43.773343 c 1.11173,0 1.66367,0.376682 1.66367,1.122198 0,0.512706 -0.31913,0.899851 -0.85015,1.03326 l 0.87108,1.739538 h -1.05419 l -0.74551,-1.595667 h -0.46301 v 1.595667 h -0.94955 v -3.894996 z m -0.0863,-1.522423 c -1.94096,0 -3.5157,1.57474 -3.5157,3.515698 0,1.940959 1.57474,3.515699 3.5157,3.515699 1.94096,0 3.5157,-1.57474 3.5157,-3.515699 0,-1.940958 -1.57474,-3.515698 -3.5157,-3.515698 z m 2.84343,3.518314 c 0,1.569508 -1.27392,2.843426 -2.84343,2.843426 -1.56951,0 -2.84342,-1.273918 -2.84342,-2.843426 0,-1.569508 1.27391,-2.843426 2.84342,-2.843426 1.56951,0 2.84343,1.271302 2.84343,2.843426 z m -3.33521,-0.266816 h 0.46301 c 0.54148,0 0.80306,-0.164799 0.80306,-0.551944 0,-0.405456 -0.27989,-0.580718 -0.85015,-0.580718 h -0.41592 z"
             id="path1063" />
        </g>
      </g>
    </g>
  </g>
  <style
     type="text/css"
     id="style1043">.logo{fill:#939598}</style>
</svg>
